#!OML:ASF C:\ViconDB\ViconDB\414\Spring2016\041811\Spring2016.ASF
:FULLY-SPECIFIED
:DEGREES
186
root 8.86497 17.1812 -36.4587 -182.017 4.51938 186.239
lowerback 7.82974 2.08555 2.17988
upperback 2.97167 3.42635 4.25004
thorax -1.45115 1.87593 2.85331
lowerneck -15.1955 -5.50786 -13.9024
upperneck 17.2558 -7.68779 14.1323
head 9.00291 -3.36347 6.19895
rclavicle -1.84373e-014 -2.78299e-015
rhumerus -37.3858 4.15631 -89.934
rradius 103.923
rwrist 10.1425
rhand -35.0329 -11.913
rfingers 7.12502
rthumb -8.17648 -41.7348
lclavicle -1.84373e-014 -2.78299e-015
lhumerus -68.1007 -20.1735 102.075
lradius 57.7052
lwrist -13.1352
lhand -34.1191 12.6483
lfingers 7.12502
lthumb -7.29456 42.5026
rfemur -14.7043 -14.208 28.0117
rtibia 51.0161
rfoot -169.918 17.2579
rtoes -8.04648
lfemur -23.9779 9.07232 -7.61197
ltibia 95.4185
lfoot -4.34936 1.97306
ltoes -4.41557
187
root 8.83662 17.2271 -36.9142 -181.784 4.95746 184.322
lowerback 7.60829 2.80375 0.540323
upperback 2.80565 4.15025 3.60107
thorax -1.58873 2.19419 3.03732
lowerneck -14.9527 -5.72663 -13.9065
upperneck 17.2415 -8.08695 14.3087
head 9.02514 -3.55111 6.20803
rclavicle -3.68249e-014 -5.60573e-014
rhumerus -35.6965 4.94979 -90.2553
rradius 106.305
rwrist 9.42968
rhand -34.8341 -11.7148
rfingers 7.12502
rthumb -7.98462 -41.544
lclavicle -3.68249e-014 -5.60573e-014
lhumerus -71.3836 -21.353 103.606
lradius 58.6824
lwrist -13.6119
lhand -33.3022 11.8316
lfingers 7.12502
lthumb -6.506 41.7117
rfemur -12.6496 -14.7723 24.9837
rtibia 49.9995
rfoot -168.944 18.5009
rtoes -7.09977
lfemur -26.9186 8.74827 -10.9081
ltibia 94.61
lfoot -5.74634 3.04078
ltoes -5.94977
188
root 8.82426 17.2904 -37.392 -181.76 4.93492 183.481
lowerback 7.38221 3.18631 -0.450129
upperback 2.70074 4.54515 3.39808
thorax -1.64958 2.37514 3.35315
lowerneck -14.7216 -5.82876 -13.7495
upperneck 17.3702 -8.34116 14.3051
head 9.05891 -3.67804 6.14816
rclavicle -2.05742e-014 -4.8901e-014
rhumerus -34.2863 6.18079 -90.6415
rradius 108.661
rwrist 8.74496
rhand -34.9609 -11.3171
rfingers 7.12502
rthumb -8.107 -41.1415
lclavicle -2.05742e-014 -4.8901e-014
lhumerus -74.6392 -21.9355 105.063
lradius 59.907
lwrist -14.5723
lhand -33.3638 11.7651
lfingers 7.12502
lthumb -6.56545 41.6434
rfemur -9.85181 -15.2893 23.1597
rtibia 48.3042
rfoot -168.404 19.2358
rtoes -7.54168
lfemur -29.3649 8.12036 -12.6
ltibia 93.27
lfoot -7.34369 3.73324
ltoes -7.20468
189
root 8.82829 17.3619 -37.8597 -181.783 5.0341 184.066
lowerback 7.56168 3.53504 -0.137294
upperback 2.45529 5.03389 3.4473
thorax -2.01204 2.61926 3.16064
lowerneck -14.301 -5.89006 -13.5064
upperneck 17.4624 -8.68366 14.628
head 9.07048 -3.83154 6.18003
rclavicle -3.69243e-014 -3.97569e-014
rhumerus -33.3951 7.40838 -91.1664
rradius 111.222
rwrist 7.39317
rhand -34.6084 -11.0698
rfingers 7.12502
rthumb -7.76678 -40.9071
lclavicle -3.69243e-014 -3.97569e-014
lhumerus -78.0399 -22.5379 106.322
lradius 61.2176
lwrist -15.2268
lhand -33.6468 11.6373
lfingers 7.12502
lthumb -6.83866 41.5068
rfemur -6.74592 -14.9419 23.3293
rtibia 46.1082
rfoot -168.025 18.8393
rtoes -6.95147
lfemur -31.3627 7.87419 -12.2264
ltibia 91.4673
lfoot -9.00027 3.78017
ltoes -7.37876
190
root 8.84062 17.4373 -38.3619 -181.929 5.05767 186.278
lowerback 7.51278 3.76742 1.64421
upperback 2.33136 5.55912 4.09268
thorax -2.044 2.90594 2.78406
lowerneck -13.9551 -6.03459 -13.5705
upperneck 17.7621 -9.08679 14.926
head 9.19014 -4.03247 6.2525
rclavicle 5.2181e-015 1.03368e-014
rhumerus -32.8343 8.59046 -91.3278
rradius 113.663
rwrist 6.72078
rhand -34.2598 -10.9669
rfingers 7.12502
rthumb -7.43039 -40.8164
lclavicle 5.2181e-015 1.03368e-014
lhumerus -81.302 -22.8117 107.65
lradius 63.3115
lwrist -13.3524
lhand -33.2019 11.2808
lfingers 7.12502
lthumb -6.40914 41.1639
rfemur -2.95605 -13.9081 25.4601
rtibia 43.2831
rfoot -168.226 17.5764
rtoes -6.19037
lfemur -32.7925 7.80666 -9.77941
ltibia 89.2488
lfoot -10.3231 3.28239
ltoes -6.42954
